# xmcd
# 
# Track frame offsets:
#     150
#     15385
#     34344
#     54644
#     81484
#     105736
#     123024
#     144970
#     166346
#     183576
# 
# Disc length: 2765
# 
# Revision: 7
# Processed by: cddbd v1.5.2PL0 Copyright (c) Steve Scherf et al.
# Submitted via: BonkEnc v1.0.15
# 
DISCID=7e0acb0a
DTITLE=Nomadi - Una storia da raccontare
DYEAR=1998
DGENRE=Italian
TTITLE0=Una storia da raccontare
TTITLE1=Anni di frontiera
TTITLE2=Ti lascio una parola (Goodbye)
TTITLE3=Il profumo del mare
TTITLE4=Canto alla luna
TTITLE5=Tempo che se ne va
TTITLE6=Le leggende di un popolo
TTITLE7=Mediterraneo
TTITLE8=32° parallelo
TTITLE9=Buonanotte ai suonatori
EXTD=YEAR: 1998
EXTT0=
EXTT1=
EXTT2=
EXTT3=
EXTT4=
EXTT5=
EXTT6=
EXTT7=
EXTT8=
EXTT9=
PLAYORDER=
